<svg width="395" height="383" viewBox="0 0 395 383" fill="none" xmlns="http://www.w3.org/2000/svg">
<path d="M44.0162 374.073L112.005 250.37L129.281 283.976L172.862 179.077L194.741 204.188L226.273 143.574L240.424 159.155L384.021 10.5073" stroke="black" stroke-width="16.6667" stroke-linecap="round" stroke-linejoin="round"/>
<path d="M29.9947 64.434H8.45685" stroke="black" stroke-width="16.6667" stroke-linecap="round" stroke-linejoin="round"/>
<path d="M29.9947 64.434V117.237H70.1105C74.1341 117.282 78.1281 116.633 81.8604 115.326C85.5928 114.019 88.9893 112.082 91.853 109.626C94.7166 107.17 96.9903 104.244 98.5422 101.018C100.094 97.7928 100.893 94.3317 100.893 90.8357C100.893 87.3398 100.094 83.8786 98.5422 80.6531C96.9903 77.4276 94.7166 74.5019 91.853 72.0458C88.9893 69.5897 85.5928 67.6522 81.8604 66.3455C78.1281 65.0388 74.1341 64.3891 70.1105 64.434H29.9947Z" stroke="black" stroke-width="16.6667" stroke-linejoin="round"/>
<path d="M29.9947 117.237V173.518H72.7517C77.0433 173.57 81.3039 172.88 85.2861 171.489C89.2682 170.098 92.8926 168.034 95.9485 165.415C99.0044 162.797 101.431 159.678 103.087 156.238C104.743 152.798 105.596 149.106 105.596 145.378C105.596 141.649 104.743 137.957 103.087 134.517C101.431 131.077 99.0044 127.958 95.9485 125.34C92.8926 122.721 89.2682 120.657 85.2861 119.266C81.3039 117.875 77.0433 117.186 72.7517 117.237H29.9947Z" stroke="black" stroke-width="16.6667" stroke-linejoin="round"/>
<path d="M29.9947 173.481H8.45685" stroke="black" stroke-width="16.6667" stroke-linecap="round" stroke-linejoin="round"/>
<path d="M29.9482 173.825V191.143" stroke="black" stroke-width="16.6667" stroke-linecap="round" stroke-linejoin="round"/>
<path d="M64.7953 173.825V191.143" stroke="black" stroke-width="16.6667" stroke-linecap="round" stroke-linejoin="round"/>
<path d="M29.9482 45.3696V62.6885" stroke="black" stroke-width="16.6667" stroke-linecap="round" stroke-linejoin="round"/>
<path d="M64.7953 45.3696V62.6885" stroke="black" stroke-width="16.6667" stroke-linecap="round" stroke-linejoin="round"/>
<path d="M386 9L341 9" stroke="black" stroke-width="16.6" stroke-linecap="round"/>
<path d="M386 9V54" stroke="black" stroke-width="16.6" stroke-linecap="round"/>
</svg>
