<svg width="179" height="91" viewBox="0 0 179 91" fill="none" xmlns="http://www.w3.org/2000/svg">
<path d="M15.25 5.8125H5.125V32.5H19.4375V37H0.125V1.1875H19.9375V11.375H15.25V5.8125ZM42.0625 13.4375L35.1875 13.5V37H30.1875V8.8125H46.8125V19.0625H42.0625V13.4375ZM75.5625 8.8125V48.5H55.75V44.0625H70.5625V37H55.875V8.8125H60.5V32.375H70.5625V8.8125H75.5625ZM90.5625 37V51.0625H85.8125V8.8125H105.625V37H90.5625ZM90.5625 13.4375V32.5H100.625V13.5L90.5625 13.4375ZM133.125 37H121.625V13.3125H115.875V8.8125H121.625V0.5H126.375V8.8125H133.125V13.3125H126.375V32.5H133.125V37ZM143.375 37V8.8125H163.188V37H143.375ZM158.5 13.4375L148.375 13.5V32.5H158.5V13.4375Z" fill="black"/>
<path d="M17.875 86.3125H27.9375V80.375L13.125 71.8125V55.1875H32.9375V65.375H28.25V59.8125H18.125V67.3125L32.8125 75.8125V90.9375L13.125 91V80.75H17.875V86.3125ZM48.1875 79.5V86.5H63V91H43.1875V62.8125H62.875V79.5H48.1875ZM48.1875 74.875H58.3125V67.4375H48.1875V74.875ZM88.0625 74.375V67.3125H73.25V62.8125H93.0625V91H73.375V74.375H88.0625ZM88.0625 78.9375H78V86.375H88.0625V78.9375ZM115.188 67.4375L108.312 67.5V91H103.312V62.8125H119.938V73.0625H115.188V67.4375ZM144 67.5H133.875V86.5H148.188V91H128.875V62.8125H148.688V73.0625H144V67.5ZM178.75 91H173.75V67.3125H163.688V91H158.938V48.75H163.688V62.8125H178.75V91Z" fill="black"/>
</svg>
